<mxfile host="app.diagrams.net" agent="Mozilla/5.0 (Windows NT 10.0; Win64; x64) AppleWebKit/537.36 (KHTML, like Gecko) Chrome/141.0.0.0 Safari/537.36 Edg/141.0.0.0" version="28.2.3" pages="6">
  <diagram name="第 1 页" id="iqye0m8jxNwJv_Zd1cwm">
    <mxGraphModel dx="760" dy="911" grid="1" gridSize="10" guides="1" tooltips="1" connect="1" arrows="1" fold="1" page="1" pageScale="1" pageWidth="1654" pageHeight="2336" math="0" shadow="0">
      <root>
        <mxCell id="0" />
        <mxCell id="1" parent="0" />
        <mxCell id="5FUAwxpFIQ704VUu8cfD-37" value="" style="rounded=0;whiteSpace=wrap;html=1;align=center;verticalAlign=middle;fontFamily=Helvetica;fontSize=12;fillColor=none;" parent="1" vertex="1">
          <mxGeometry x="10" y="92.5" width="1190" height="507.5" as="geometry" />
        </mxCell>
        <mxCell id="5FUAwxpFIQ704VUu8cfD-31" value="" style="whiteSpace=wrap;html=1;aspect=fixed;rounded=0;align=center;verticalAlign=middle;fontFamily=Helvetica;fontSize=12;fillColor=none;" parent="1" vertex="1">
          <mxGeometry x="150" y="280" width="180" height="180" as="geometry" />
        </mxCell>
        <mxCell id="5FUAwxpFIQ704VUu8cfD-20" value="&lt;div&gt;&lt;br&gt;&lt;/div&gt;&lt;div&gt;&lt;br&gt;&lt;/div&gt;&lt;div&gt;&lt;br&gt;&lt;/div&gt;&lt;div&gt;&lt;br&gt;&lt;/div&gt;&lt;div&gt;&lt;br&gt;&lt;/div&gt;&lt;div&gt;&lt;br&gt;&lt;/div&gt;&lt;div&gt;&lt;br&gt;&lt;/div&gt;&lt;div&gt;&lt;br&gt;&lt;/div&gt;&lt;div&gt;&lt;br&gt;&lt;/div&gt;&lt;div&gt;&lt;br&gt;&lt;/div&gt;&lt;div&gt;&lt;br&gt;&lt;/div&gt;&lt;div&gt;&lt;br&gt;&lt;/div&gt;&lt;div&gt;&lt;br&gt;&lt;/div&gt;&lt;div&gt;&lt;br&gt;&lt;/div&gt;&lt;div&gt;&lt;br&gt;&lt;/div&gt;" style="rounded=0;whiteSpace=wrap;html=1;align=center;verticalAlign=middle;fontFamily=Helvetica;fontSize=12;fillColor=none;" parent="1" vertex="1">
          <mxGeometry x="400" y="175" width="740" height="230" as="geometry" />
        </mxCell>
        <mxCell id="5FUAwxpFIQ704VUu8cfD-5" style="edgeStyle=orthogonalEdgeStyle;rounded=0;orthogonalLoop=1;jettySize=auto;html=1;exitX=1;exitY=0.25;exitDx=0;exitDy=0;entryX=0;entryY=0.25;entryDx=0;entryDy=0;" parent="1" source="5FUAwxpFIQ704VUu8cfD-2" target="5FUAwxpFIQ704VUu8cfD-4" edge="1">
          <mxGeometry relative="1" as="geometry" />
        </mxCell>
        <mxCell id="5FUAwxpFIQ704VUu8cfD-2" value="ahb master agent" style="rounded=0;whiteSpace=wrap;html=1;" parent="1" vertex="1">
          <mxGeometry x="580" y="230" width="120" height="60" as="geometry" />
        </mxCell>
        <mxCell id="5FUAwxpFIQ704VUu8cfD-7" style="edgeStyle=orthogonalEdgeStyle;rounded=0;orthogonalLoop=1;jettySize=auto;html=1;exitX=0;exitY=0.5;exitDx=0;exitDy=0;entryX=1;entryY=0.5;entryDx=0;entryDy=0;" parent="1" source="5FUAwxpFIQ704VUu8cfD-3" target="5FUAwxpFIQ704VUu8cfD-4" edge="1">
          <mxGeometry relative="1" as="geometry" />
        </mxCell>
        <mxCell id="5FUAwxpFIQ704VUu8cfD-3" value="ahb slave&lt;span style=&quot;background-color: transparent; color: light-dark(rgb(0, 0, 0), rgb(255, 255, 255));&quot;&gt;&amp;nbsp;agent&lt;/span&gt;&lt;div&gt;&lt;span style=&quot;background-color: transparent; color: light-dark(rgb(0, 0, 0), rgb(255, 255, 255));&quot;&gt;(with mem)&lt;/span&gt;&lt;/div&gt;" style="rounded=0;whiteSpace=wrap;html=1;" parent="1" vertex="1">
          <mxGeometry x="930" y="230" width="120" height="60" as="geometry" />
        </mxCell>
        <mxCell id="5FUAwxpFIQ704VUu8cfD-9" style="edgeStyle=orthogonalEdgeStyle;rounded=0;orthogonalLoop=1;jettySize=auto;html=1;exitX=0.5;exitY=1;exitDx=0;exitDy=0;entryX=0.5;entryY=0;entryDx=0;entryDy=0;" parent="1" source="5FUAwxpFIQ704VUu8cfD-4" target="5FUAwxpFIQ704VUu8cfD-8" edge="1">
          <mxGeometry relative="1" as="geometry" />
        </mxCell>
        <mxCell id="5FUAwxpFIQ704VUu8cfD-4" value="I_cache scoreboard&lt;div&gt;(with ref_model)&lt;/div&gt;" style="rounded=0;whiteSpace=wrap;html=1;" parent="1" vertex="1">
          <mxGeometry x="750" y="230" width="120" height="60" as="geometry" />
        </mxCell>
        <mxCell id="5FUAwxpFIQ704VUu8cfD-8" value="coverage" style="rounded=0;whiteSpace=wrap;html=1;" parent="1" vertex="1">
          <mxGeometry x="750" y="320" width="120" height="60" as="geometry" />
        </mxCell>
        <mxCell id="5FUAwxpFIQ704VUu8cfD-17" style="edgeStyle=orthogonalEdgeStyle;rounded=0;orthogonalLoop=1;jettySize=auto;html=1;exitX=0;exitY=0.25;exitDx=0;exitDy=0;entryX=0;entryY=0.75;entryDx=0;entryDy=0;fontFamily=Helvetica;fontSize=12;fontColor=default;" parent="1" source="5FUAwxpFIQ704VUu8cfD-16" target="5FUAwxpFIQ704VUu8cfD-4" edge="1">
          <mxGeometry relative="1" as="geometry">
            <Array as="points">
              <mxPoint x="720" y="450" />
              <mxPoint x="720" y="275" />
            </Array>
          </mxGeometry>
        </mxCell>
        <mxCell id="5FUAwxpFIQ704VUu8cfD-35" value="mon_inf" style="edgeLabel;html=1;align=center;verticalAlign=middle;resizable=0;points=[];rounded=0;strokeColor=default;fontFamily=Helvetica;fontSize=12;fontColor=default;fillColor=default;" parent="5FUAwxpFIQ704VUu8cfD-17" vertex="1" connectable="0">
          <mxGeometry x="-0.8288" relative="1" as="geometry">
            <mxPoint x="-3" y="-15" as="offset" />
          </mxGeometry>
        </mxCell>
        <mxCell id="5FUAwxpFIQ704VUu8cfD-19" style="edgeStyle=orthogonalEdgeStyle;rounded=0;orthogonalLoop=1;jettySize=auto;html=1;exitX=1;exitY=0.75;exitDx=0;exitDy=0;entryX=0.5;entryY=1;entryDx=0;entryDy=0;fontFamily=Helvetica;fontSize=12;fontColor=default;startArrow=classic;startFill=1;" parent="1" source="5FUAwxpFIQ704VUu8cfD-16" target="5FUAwxpFIQ704VUu8cfD-3" edge="1">
          <mxGeometry relative="1" as="geometry" />
        </mxCell>
        <mxCell id="5FUAwxpFIQ704VUu8cfD-36" value="s_ahb_inf" style="edgeLabel;html=1;align=center;verticalAlign=middle;resizable=0;points=[];rounded=0;strokeColor=default;fontFamily=Helvetica;fontSize=12;fontColor=default;fillColor=default;" parent="5FUAwxpFIQ704VUu8cfD-19" vertex="1" connectable="0">
          <mxGeometry x="-0.5212" y="1" relative="1" as="geometry">
            <mxPoint y="-9" as="offset" />
          </mxGeometry>
        </mxCell>
        <mxCell id="5FUAwxpFIQ704VUu8cfD-16" value="I_cache DUT" style="whiteSpace=wrap;html=1;aspect=fixed;rounded=0;strokeColor=default;align=center;verticalAlign=middle;fontFamily=Helvetica;fontSize=12;fontColor=default;fillColor=default;" parent="1" vertex="1">
          <mxGeometry x="764" y="430" width="80" height="80" as="geometry" />
        </mxCell>
        <mxCell id="5FUAwxpFIQ704VUu8cfD-18" style="edgeStyle=orthogonalEdgeStyle;rounded=0;orthogonalLoop=1;jettySize=auto;html=1;exitX=0;exitY=0.75;exitDx=0;exitDy=0;entryX=0.462;entryY=1.05;entryDx=0;entryDy=0;entryPerimeter=0;fontFamily=Helvetica;fontSize=12;fontColor=default;endArrow=classic;endFill=1;startArrow=classic;startFill=1;" parent="1" source="5FUAwxpFIQ704VUu8cfD-16" target="5FUAwxpFIQ704VUu8cfD-2" edge="1">
          <mxGeometry relative="1" as="geometry" />
        </mxCell>
        <mxCell id="5FUAwxpFIQ704VUu8cfD-34" value="m_ahb_inf" style="edgeLabel;html=1;align=center;verticalAlign=middle;resizable=0;points=[];rounded=0;strokeColor=default;fontFamily=Helvetica;fontSize=12;fontColor=default;fillColor=default;" parent="5FUAwxpFIQ704VUu8cfD-18" vertex="1" connectable="0">
          <mxGeometry x="-0.3904" y="-3" relative="1" as="geometry">
            <mxPoint y="-7" as="offset" />
          </mxGeometry>
        </mxCell>
        <mxCell id="5FUAwxpFIQ704VUu8cfD-21" value="&lt;b&gt;env&lt;/b&gt;" style="text;html=1;align=center;verticalAlign=middle;whiteSpace=wrap;rounded=0;fontFamily=Helvetica;fontSize=12;fontColor=default;" parent="1" vertex="1">
          <mxGeometry x="400" y="180" width="60" height="30" as="geometry" />
        </mxCell>
        <mxCell id="5FUAwxpFIQ704VUu8cfD-29" style="edgeStyle=orthogonalEdgeStyle;rounded=0;orthogonalLoop=1;jettySize=auto;html=1;exitX=0;exitY=0.5;exitDx=0;exitDy=0;entryX=1;entryY=0.5;entryDx=0;entryDy=0;fontFamily=Helvetica;fontSize=12;fontColor=default;" parent="1" source="5FUAwxpFIQ704VUu8cfD-22" target="5FUAwxpFIQ704VUu8cfD-27" edge="1">
          <mxGeometry relative="1" as="geometry" />
        </mxCell>
        <mxCell id="5FUAwxpFIQ704VUu8cfD-22" value="master_seqence" style="rounded=0;whiteSpace=wrap;html=1;strokeColor=default;align=center;verticalAlign=middle;fontFamily=Helvetica;fontSize=12;fontColor=default;fillColor=default;" parent="1" vertex="1">
          <mxGeometry x="170" y="360" width="100" height="50" as="geometry" />
        </mxCell>
        <mxCell id="5FUAwxpFIQ704VUu8cfD-30" style="edgeStyle=orthogonalEdgeStyle;rounded=0;orthogonalLoop=1;jettySize=auto;html=1;exitX=0;exitY=0.5;exitDx=0;exitDy=0;entryX=1;entryY=0.5;entryDx=0;entryDy=0;fontFamily=Helvetica;fontSize=12;fontColor=default;" parent="1" source="5FUAwxpFIQ704VUu8cfD-23" target="5FUAwxpFIQ704VUu8cfD-26" edge="1">
          <mxGeometry relative="1" as="geometry" />
        </mxCell>
        <mxCell id="5FUAwxpFIQ704VUu8cfD-23" value="slave_sequence" style="rounded=0;whiteSpace=wrap;html=1;strokeColor=default;align=center;verticalAlign=middle;fontFamily=Helvetica;fontSize=12;fontColor=default;fillColor=default;" parent="1" vertex="1">
          <mxGeometry x="170" y="300" width="100" height="50" as="geometry" />
        </mxCell>
        <mxCell id="5FUAwxpFIQ704VUu8cfD-24" value="slave_configure" style="rounded=0;whiteSpace=wrap;html=1;strokeColor=default;align=center;verticalAlign=middle;fontFamily=Helvetica;fontSize=12;fontColor=default;fillColor=default;" parent="1" vertex="1">
          <mxGeometry x="170" y="160" width="100" height="50" as="geometry" />
        </mxCell>
        <mxCell id="5FUAwxpFIQ704VUu8cfD-25" value="master_configure" style="rounded=0;whiteSpace=wrap;html=1;strokeColor=default;align=center;verticalAlign=middle;fontFamily=Helvetica;fontSize=12;fontColor=default;fillColor=default;" parent="1" vertex="1">
          <mxGeometry x="170" y="220" width="100" height="50" as="geometry" />
        </mxCell>
        <mxCell id="5FUAwxpFIQ704VUu8cfD-26" value="slv_seq" style="rounded=1;whiteSpace=wrap;html=1;strokeColor=default;align=center;verticalAlign=middle;fontFamily=Helvetica;fontSize=12;fontColor=default;fillColor=default;" parent="1" vertex="1">
          <mxGeometry x="40" y="305" width="80" height="40" as="geometry" />
        </mxCell>
        <mxCell id="5FUAwxpFIQ704VUu8cfD-27" value="mas_seq" style="rounded=1;whiteSpace=wrap;html=1;strokeColor=default;align=center;verticalAlign=middle;fontFamily=Helvetica;fontSize=12;fontColor=default;fillColor=default;" parent="1" vertex="1">
          <mxGeometry x="40" y="365" width="80" height="40" as="geometry" />
        </mxCell>
        <mxCell id="5FUAwxpFIQ704VUu8cfD-32" value="virtual sequence" style="text;html=1;align=center;verticalAlign=middle;whiteSpace=wrap;rounded=0;fontFamily=Helvetica;fontSize=12;fontColor=default;" parent="1" vertex="1">
          <mxGeometry x="190" y="420" width="60" height="30" as="geometry" />
        </mxCell>
        <mxCell id="5FUAwxpFIQ704VUu8cfD-33" value="virtual sequencer" style="rounded=0;whiteSpace=wrap;html=1;strokeColor=default;align=center;verticalAlign=middle;fontFamily=Helvetica;fontSize=12;fontColor=default;fillColor=default;" parent="1" vertex="1">
          <mxGeometry x="420" y="220" width="120" height="60" as="geometry" />
        </mxCell>
        <mxCell id="5FUAwxpFIQ704VUu8cfD-38" value="&lt;b&gt;base_context&lt;/b&gt;" style="text;html=1;align=center;verticalAlign=middle;whiteSpace=wrap;rounded=0;fontFamily=Helvetica;fontSize=12;fontColor=default;" parent="1" vertex="1">
          <mxGeometry x="470" y="570" width="80" height="30" as="geometry" />
        </mxCell>
      </root>
    </mxGraphModel>
  </diagram>
  <diagram id="U2t4r32xltU46ahYzcAo" name="第 2 页">
    <mxGraphModel dx="1303" dy="2148" grid="1" gridSize="10" guides="1" tooltips="1" connect="1" arrows="1" fold="1" page="1" pageScale="1" pageWidth="1654" pageHeight="2336" math="0" shadow="0">
      <root>
        <mxCell id="0" />
        <mxCell id="1" parent="0" />
        <mxCell id="Z7O7lZRvN7bPJXYsmt0W-32" value="" style="rounded=0;whiteSpace=wrap;html=1;fillColor=none;" vertex="1" parent="1">
          <mxGeometry x="250" y="590" width="1230" height="470" as="geometry" />
        </mxCell>
        <mxCell id="Z7O7lZRvN7bPJXYsmt0W-29" value="" style="rounded=0;whiteSpace=wrap;html=1;fillColor=none;" vertex="1" parent="1">
          <mxGeometry x="440" y="620" width="850" height="390" as="geometry" />
        </mxCell>
        <mxCell id="Z7O7lZRvN7bPJXYsmt0W-13" value="" style="rounded=0;whiteSpace=wrap;html=1;fillColor=none;" vertex="1" parent="1">
          <mxGeometry x="260" y="130" width="870" height="420" as="geometry" />
        </mxCell>
        <mxCell id="Z7O7lZRvN7bPJXYsmt0W-8" value="" style="rounded=0;whiteSpace=wrap;html=1;fillColor=none;" vertex="1" parent="1">
          <mxGeometry x="470" y="170" width="580" height="350" as="geometry" />
        </mxCell>
        <mxCell id="Z7O7lZRvN7bPJXYsmt0W-1" value="" style="rounded=0;whiteSpace=wrap;html=1;fillColor=none;" vertex="1" parent="1">
          <mxGeometry x="510" y="200" width="360" height="280" as="geometry" />
        </mxCell>
        <mxCell id="Z7O7lZRvN7bPJXYsmt0W-2" value="yuu_ahb_master_agent" style="text;html=1;align=center;verticalAlign=middle;whiteSpace=wrap;rounded=0;" vertex="1" parent="1">
          <mxGeometry x="580" y="450" width="110" height="30" as="geometry" />
        </mxCell>
        <mxCell id="Z7O7lZRvN7bPJXYsmt0W-3" value="monitor&lt;div&gt;(yuu_ahb_master_mon)&lt;/div&gt;" style="rounded=0;whiteSpace=wrap;html=1;" vertex="1" parent="1">
          <mxGeometry x="707" y="220" width="133" height="50" as="geometry" />
        </mxCell>
        <mxCell id="Z7O7lZRvN7bPJXYsmt0W-4" value="driver&lt;div&gt;(yuu_ahb_master_drv)&lt;/div&gt;" style="rounded=0;whiteSpace=wrap;html=1;" vertex="1" parent="1">
          <mxGeometry x="707" y="290" width="133" height="50" as="geometry" />
        </mxCell>
        <mxCell id="Z7O7lZRvN7bPJXYsmt0W-5" value="sequencer&lt;div&gt;(yuu_ahb_master_sqr)&lt;/div&gt;" style="rounded=0;whiteSpace=wrap;html=1;" vertex="1" parent="1">
          <mxGeometry x="707" y="360" width="133" height="50" as="geometry" />
        </mxCell>
        <mxCell id="Z7O7lZRvN7bPJXYsmt0W-6" value="configure&lt;div&gt;(yuu_ahb_master_cfg)&lt;/div&gt;" style="rounded=0;whiteSpace=wrap;html=1;" vertex="1" parent="1">
          <mxGeometry x="550" y="250" width="130" height="50" as="geometry" />
        </mxCell>
        <mxCell id="Z7O7lZRvN7bPJXYsmt0W-7" value="coverage&lt;div&gt;(yuu_ahb_cov)&lt;/div&gt;" style="rounded=0;whiteSpace=wrap;html=1;" vertex="1" parent="1">
          <mxGeometry x="550" y="340" width="130" height="50" as="geometry" />
        </mxCell>
        <mxCell id="Z7O7lZRvN7bPJXYsmt0W-9" value="ahb_sram_env" style="text;html=1;align=center;verticalAlign=middle;whiteSpace=wrap;rounded=0;" vertex="1" parent="1">
          <mxGeometry x="640" y="490" width="100" height="30" as="geometry" />
        </mxCell>
        <mxCell id="Z7O7lZRvN7bPJXYsmt0W-10" value="scoreboard&lt;div&gt;(ahb_sram_acb)&lt;/div&gt;" style="rounded=0;whiteSpace=wrap;html=1;" vertex="1" parent="1">
          <mxGeometry x="900" y="230" width="120" height="50" as="geometry" />
        </mxCell>
        <mxCell id="Z7O7lZRvN7bPJXYsmt0W-11" value="sequence&lt;div&gt;(ahb_sram_base_sqc)&lt;/div&gt;" style="rounded=0;whiteSpace=wrap;html=1;" vertex="1" parent="1">
          <mxGeometry x="300" y="240" width="130" height="50" as="geometry" />
        </mxCell>
        <mxCell id="Z7O7lZRvN7bPJXYsmt0W-12" value="coverage&lt;div&gt;(ahb_sram_coverage)&lt;/div&gt;" style="rounded=0;whiteSpace=wrap;html=1;" vertex="1" parent="1">
          <mxGeometry x="300" y="340" width="130" height="50" as="geometry" />
        </mxCell>
        <mxCell id="Z7O7lZRvN7bPJXYsmt0W-14" value="ahb_sram_base_test" style="text;html=1;align=center;verticalAlign=middle;whiteSpace=wrap;rounded=0;" vertex="1" parent="1">
          <mxGeometry x="300" y="520" width="130" height="30" as="geometry" />
        </mxCell>
        <mxCell id="Z7O7lZRvN7bPJXYsmt0W-15" value="" style="rounded=0;whiteSpace=wrap;html=1;fillColor=none;" vertex="1" parent="1">
          <mxGeometry x="490" y="670" width="360" height="280" as="geometry" />
        </mxCell>
        <mxCell id="Z7O7lZRvN7bPJXYsmt0W-16" value="yuu_ahb_master_agent" style="text;html=1;align=center;verticalAlign=middle;whiteSpace=wrap;rounded=0;" vertex="1" parent="1">
          <mxGeometry x="560" y="920" width="110" height="30" as="geometry" />
        </mxCell>
        <mxCell id="Z7O7lZRvN7bPJXYsmt0W-17" value="monitor&lt;div&gt;(yuu_ahb_master_mon)&lt;/div&gt;" style="rounded=0;whiteSpace=wrap;html=1;" vertex="1" parent="1">
          <mxGeometry x="687" y="690" width="133" height="50" as="geometry" />
        </mxCell>
        <mxCell id="Z7O7lZRvN7bPJXYsmt0W-18" value="driver&lt;div&gt;(yuu_ahb_master_drv)&lt;/div&gt;" style="rounded=0;whiteSpace=wrap;html=1;" vertex="1" parent="1">
          <mxGeometry x="687" y="760" width="133" height="50" as="geometry" />
        </mxCell>
        <mxCell id="Z7O7lZRvN7bPJXYsmt0W-19" value="sequencer&lt;div&gt;(yuu_ahb_master_sqr)&lt;/div&gt;" style="rounded=0;whiteSpace=wrap;html=1;" vertex="1" parent="1">
          <mxGeometry x="687" y="830" width="133" height="50" as="geometry" />
        </mxCell>
        <mxCell id="Z7O7lZRvN7bPJXYsmt0W-20" value="configure&lt;div&gt;(yuu_ahb_master_cfg)&lt;/div&gt;" style="rounded=0;whiteSpace=wrap;html=1;" vertex="1" parent="1">
          <mxGeometry x="530" y="720" width="130" height="50" as="geometry" />
        </mxCell>
        <mxCell id="Z7O7lZRvN7bPJXYsmt0W-21" value="coverage&lt;div&gt;(yuu_ahb_cov)&lt;/div&gt;" style="rounded=0;whiteSpace=wrap;html=1;" vertex="1" parent="1">
          <mxGeometry x="530" y="810" width="130" height="50" as="geometry" />
        </mxCell>
        <mxCell id="Z7O7lZRvN7bPJXYsmt0W-22" value="" style="rounded=0;whiteSpace=wrap;html=1;fillColor=none;" vertex="1" parent="1">
          <mxGeometry x="880" y="670" width="360" height="280" as="geometry" />
        </mxCell>
        <mxCell id="Z7O7lZRvN7bPJXYsmt0W-23" value="yuu_ahb_slave_agent" style="text;html=1;align=center;verticalAlign=middle;whiteSpace=wrap;rounded=0;" vertex="1" parent="1">
          <mxGeometry x="950" y="920" width="110" height="30" as="geometry" />
        </mxCell>
        <mxCell id="Z7O7lZRvN7bPJXYsmt0W-24" value="monitor&lt;div&gt;(yuu_ahb_slave_mon)&lt;/div&gt;" style="rounded=0;whiteSpace=wrap;html=1;" vertex="1" parent="1">
          <mxGeometry x="1077" y="690" width="133" height="50" as="geometry" />
        </mxCell>
        <mxCell id="Z7O7lZRvN7bPJXYsmt0W-25" value="driver&lt;div&gt;(yuu_ahb_slave_drv)&lt;/div&gt;" style="rounded=0;whiteSpace=wrap;html=1;" vertex="1" parent="1">
          <mxGeometry x="1077" y="760" width="133" height="50" as="geometry" />
        </mxCell>
        <mxCell id="Z7O7lZRvN7bPJXYsmt0W-26" value="sequencer&lt;div&gt;(yuu_ahb_slave_sqr)&lt;/div&gt;" style="rounded=0;whiteSpace=wrap;html=1;" vertex="1" parent="1">
          <mxGeometry x="1077" y="830" width="133" height="50" as="geometry" />
        </mxCell>
        <mxCell id="Z7O7lZRvN7bPJXYsmt0W-27" value="configure&lt;div&gt;(yuu_ahb_slave_cfg)&lt;/div&gt;" style="rounded=0;whiteSpace=wrap;html=1;" vertex="1" parent="1">
          <mxGeometry x="920" y="720" width="130" height="50" as="geometry" />
        </mxCell>
        <mxCell id="Z7O7lZRvN7bPJXYsmt0W-28" value="coverage&lt;div&gt;(yuu_ahb_cov)&lt;/div&gt;" style="rounded=0;whiteSpace=wrap;html=1;" vertex="1" parent="1">
          <mxGeometry x="920" y="810" width="130" height="50" as="geometry" />
        </mxCell>
        <mxCell id="Z7O7lZRvN7bPJXYsmt0W-30" value="yuu_ahb_env" style="text;html=1;align=center;verticalAlign=middle;whiteSpace=wrap;rounded=0;" vertex="1" parent="1">
          <mxGeometry x="850" y="980" width="60" height="30" as="geometry" />
        </mxCell>
        <mxCell id="Z7O7lZRvN7bPJXYsmt0W-33" value="master_sequence&lt;div&gt;(yuu_master_direct_sqc)&lt;/div&gt;" style="rounded=0;whiteSpace=wrap;html=1;" vertex="1" parent="1">
          <mxGeometry x="280" y="680" width="150" height="50" as="geometry" />
        </mxCell>
        <mxCell id="Z7O7lZRvN7bPJXYsmt0W-34" value="yuu_ahb_direct_case" style="text;html=1;align=center;verticalAlign=middle;whiteSpace=wrap;rounded=0;" vertex="1" parent="1">
          <mxGeometry x="700" y="1030" width="60" height="30" as="geometry" />
        </mxCell>
        <mxCell id="Z7O7lZRvN7bPJXYsmt0W-35" value="rsp_seq&lt;div&gt;(yuu_slave_rsp_sequence)&lt;/div&gt;" style="rounded=0;whiteSpace=wrap;html=1;" vertex="1" parent="1">
          <mxGeometry x="1310" y="660" width="150" height="60" as="geometry" />
        </mxCell>
        <mxCell id="Z7O7lZRvN7bPJXYsmt0W-36" value="" style="rounded=0;whiteSpace=wrap;html=1;fillColor=none;" vertex="1" parent="1">
          <mxGeometry x="220" y="1120" width="1260" height="470" as="geometry" />
        </mxCell>
        <mxCell id="Z7O7lZRvN7bPJXYsmt0W-37" value="" style="rounded=0;whiteSpace=wrap;html=1;fillColor=none;" vertex="1" parent="1">
          <mxGeometry x="440" y="1150" width="990" height="390" as="geometry" />
        </mxCell>
        <mxCell id="Z7O7lZRvN7bPJXYsmt0W-38" value="" style="rounded=0;whiteSpace=wrap;html=1;fillColor=none;" vertex="1" parent="1">
          <mxGeometry x="660" y="1200" width="360" height="280" as="geometry" />
        </mxCell>
        <mxCell id="Z7O7lZRvN7bPJXYsmt0W-39" value="yuu_ahb_master_agent" style="text;html=1;align=center;verticalAlign=middle;whiteSpace=wrap;rounded=0;" vertex="1" parent="1">
          <mxGeometry x="730" y="1450" width="110" height="30" as="geometry" />
        </mxCell>
        <mxCell id="Z7O7lZRvN7bPJXYsmt0W-40" value="monitor&lt;div&gt;(yuu_ahb_master_mon)&lt;/div&gt;" style="rounded=0;whiteSpace=wrap;html=1;" vertex="1" parent="1">
          <mxGeometry x="857" y="1220" width="133" height="50" as="geometry" />
        </mxCell>
        <mxCell id="Z7O7lZRvN7bPJXYsmt0W-41" value="driver&lt;div&gt;(yuu_ahb_master_drv)&lt;/div&gt;" style="rounded=0;whiteSpace=wrap;html=1;" vertex="1" parent="1">
          <mxGeometry x="857" y="1290" width="133" height="50" as="geometry" />
        </mxCell>
        <mxCell id="Z7O7lZRvN7bPJXYsmt0W-42" value="sequencer&lt;div&gt;(yuu_ahb_master_sqr)&lt;/div&gt;" style="rounded=0;whiteSpace=wrap;html=1;" vertex="1" parent="1">
          <mxGeometry x="857" y="1360" width="133" height="50" as="geometry" />
        </mxCell>
        <mxCell id="Z7O7lZRvN7bPJXYsmt0W-43" value="configure&lt;div&gt;(yuu_ahb_master_cfg)&lt;/div&gt;" style="rounded=0;whiteSpace=wrap;html=1;" vertex="1" parent="1">
          <mxGeometry x="700" y="1250" width="130" height="50" as="geometry" />
        </mxCell>
        <mxCell id="Z7O7lZRvN7bPJXYsmt0W-44" value="coverage&lt;div&gt;(yuu_ahb_cov)&lt;/div&gt;" style="rounded=0;whiteSpace=wrap;html=1;" vertex="1" parent="1">
          <mxGeometry x="700" y="1340" width="130" height="50" as="geometry" />
        </mxCell>
        <mxCell id="Z7O7lZRvN7bPJXYsmt0W-45" value="" style="rounded=0;whiteSpace=wrap;html=1;fillColor=none;" vertex="1" parent="1">
          <mxGeometry x="1050" y="1200" width="360" height="280" as="geometry" />
        </mxCell>
        <mxCell id="Z7O7lZRvN7bPJXYsmt0W-46" value="yuu_ahb_slave_agent" style="text;html=1;align=center;verticalAlign=middle;whiteSpace=wrap;rounded=0;" vertex="1" parent="1">
          <mxGeometry x="1120" y="1450" width="110" height="30" as="geometry" />
        </mxCell>
        <mxCell id="Z7O7lZRvN7bPJXYsmt0W-58" value="" style="rounded=0;whiteSpace=wrap;html=1;fillColor=none;" vertex="1" parent="1">
          <mxGeometry x="240" y="1190" width="175" height="210" as="geometry" />
        </mxCell>
        <mxCell id="Z7O7lZRvN7bPJXYsmt0W-47" value="monitor&lt;div&gt;(yuu_ahb_slave_mon)&lt;/div&gt;" style="rounded=0;whiteSpace=wrap;html=1;" vertex="1" parent="1">
          <mxGeometry x="1247" y="1220" width="133" height="50" as="geometry" />
        </mxCell>
        <mxCell id="Z7O7lZRvN7bPJXYsmt0W-48" value="driver&lt;div&gt;(yuu_ahb_slave_drv)&lt;/div&gt;" style="rounded=0;whiteSpace=wrap;html=1;" vertex="1" parent="1">
          <mxGeometry x="1247" y="1290" width="133" height="50" as="geometry" />
        </mxCell>
        <mxCell id="Z7O7lZRvN7bPJXYsmt0W-49" value="sequencer&lt;div&gt;(yuu_ahb_slave_sqr)&lt;/div&gt;" style="rounded=0;whiteSpace=wrap;html=1;" vertex="1" parent="1">
          <mxGeometry x="1247" y="1360" width="133" height="50" as="geometry" />
        </mxCell>
        <mxCell id="Z7O7lZRvN7bPJXYsmt0W-50" value="configure&lt;div&gt;(yuu_ahb_slave_cfg)&lt;/div&gt;" style="rounded=0;whiteSpace=wrap;html=1;" vertex="1" parent="1">
          <mxGeometry x="1090" y="1250" width="130" height="50" as="geometry" />
        </mxCell>
        <mxCell id="Z7O7lZRvN7bPJXYsmt0W-51" value="coverage&lt;div&gt;(yuu_ahb_cov)&lt;/div&gt;" style="rounded=0;whiteSpace=wrap;html=1;" vertex="1" parent="1">
          <mxGeometry x="1090" y="1340" width="130" height="50" as="geometry" />
        </mxCell>
        <mxCell id="Z7O7lZRvN7bPJXYsmt0W-52" value="yuu_ahb_env" style="text;html=1;align=center;verticalAlign=middle;whiteSpace=wrap;rounded=0;" vertex="1" parent="1">
          <mxGeometry x="870" y="1510" width="60" height="30" as="geometry" />
        </mxCell>
        <mxCell id="Z7O7lZRvN7bPJXYsmt0W-53" value="master_sequence&lt;div&gt;(yuu_master_direct_sqc)&lt;/div&gt;" style="rounded=0;whiteSpace=wrap;html=1;" vertex="1" parent="1">
          <mxGeometry x="255" y="1210" width="150" height="50" as="geometry" />
        </mxCell>
        <mxCell id="Z7O7lZRvN7bPJXYsmt0W-54" value="yuu_ahb_direct_case" style="text;html=1;align=center;verticalAlign=middle;whiteSpace=wrap;rounded=0;" vertex="1" parent="1">
          <mxGeometry x="720" y="1560" width="60" height="30" as="geometry" />
        </mxCell>
        <mxCell id="Z7O7lZRvN7bPJXYsmt0W-57" value="rsp_sequence&lt;div&gt;(yuu_slave_rsp_sqc)&lt;/div&gt;" style="rounded=0;whiteSpace=wrap;html=1;" vertex="1" parent="1">
          <mxGeometry x="255" y="1280" width="150" height="50" as="geometry" />
        </mxCell>
        <mxCell id="Z7O7lZRvN7bPJXYsmt0W-59" value="yuu_master_direct_&lt;div&gt;virtual_sequence&lt;/div&gt;" style="text;html=1;align=center;verticalAlign=middle;whiteSpace=wrap;rounded=0;" vertex="1" parent="1">
          <mxGeometry x="272.5" y="1360" width="110" height="30" as="geometry" />
        </mxCell>
        <mxCell id="Z7O7lZRvN7bPJXYsmt0W-62" value="" style="rounded=0;whiteSpace=wrap;html=1;fillColor=none;" vertex="1" parent="1">
          <mxGeometry x="460" y="1190" width="175" height="210" as="geometry" />
        </mxCell>
        <mxCell id="Z7O7lZRvN7bPJXYsmt0W-66" style="edgeStyle=orthogonalEdgeStyle;rounded=0;orthogonalLoop=1;jettySize=auto;html=1;exitX=1;exitY=0.5;exitDx=0;exitDy=0;entryX=0.5;entryY=1;entryDx=0;entryDy=0;curved=1;dashed=1;dashPattern=8 8;" edge="1" parent="1" source="Z7O7lZRvN7bPJXYsmt0W-63" target="Z7O7lZRvN7bPJXYsmt0W-42">
          <mxGeometry relative="1" as="geometry" />
        </mxCell>
        <mxCell id="Z7O7lZRvN7bPJXYsmt0W-63" value="master_sequencer[ ]&lt;div&gt;(yuu_ahb_master_sqr)&lt;/div&gt;" style="rounded=0;whiteSpace=wrap;html=1;" vertex="1" parent="1">
          <mxGeometry x="475" y="1210" width="150" height="50" as="geometry" />
        </mxCell>
        <mxCell id="Z7O7lZRvN7bPJXYsmt0W-67" style="edgeStyle=orthogonalEdgeStyle;rounded=0;orthogonalLoop=1;jettySize=auto;html=1;exitX=1;exitY=0.5;exitDx=0;exitDy=0;entryX=0.5;entryY=1;entryDx=0;entryDy=0;curved=1;dashed=1;dashPattern=8 8;" edge="1" parent="1" source="Z7O7lZRvN7bPJXYsmt0W-64" target="Z7O7lZRvN7bPJXYsmt0W-49">
          <mxGeometry relative="1" as="geometry">
            <Array as="points">
              <mxPoint x="625" y="1340" />
              <mxPoint x="1020" y="1340" />
              <mxPoint x="1020" y="1440" />
              <mxPoint x="1314" y="1440" />
            </Array>
          </mxGeometry>
        </mxCell>
        <mxCell id="Z7O7lZRvN7bPJXYsmt0W-64" value="slave_sequence[ ]&lt;div&gt;(yuu_ahb_slave_sqr)&lt;/div&gt;" style="rounded=0;whiteSpace=wrap;html=1;" vertex="1" parent="1">
          <mxGeometry x="475" y="1280" width="150" height="50" as="geometry" />
        </mxCell>
        <mxCell id="Z7O7lZRvN7bPJXYsmt0W-65" value="yuu_ahb_virtual_sequencer" style="text;html=1;align=center;verticalAlign=middle;whiteSpace=wrap;rounded=0;" vertex="1" parent="1">
          <mxGeometry x="490" y="1360" width="110" height="30" as="geometry" />
        </mxCell>
      </root>
    </mxGraphModel>
  </diagram>
  <diagram id="glixJgaPLdVzsz5AqHOM" name="第 3 页">
    <mxGraphModel dx="-40" dy="111" grid="0" gridSize="10" guides="1" tooltips="1" connect="1" arrows="1" fold="1" page="0" pageScale="1" pageWidth="1654" pageHeight="2336" math="0" shadow="0">
      <root>
        <mxCell id="0" />
        <mxCell id="1" parent="0" />
        <mxCell id="7rH_ultBV_I4tdvh8ZSU-12" value="" style="edgeStyle=none;html=1;strokeWidth=4;fillColor=#fff2cc;strokeColor=#d6b656;" edge="1" parent="1" source="7rH_ultBV_I4tdvh8ZSU-13" target="7rH_ultBV_I4tdvh8ZSU-15">
          <mxGeometry relative="1" as="geometry" />
        </mxCell>
        <mxCell id="7rH_ultBV_I4tdvh8ZSU-13" value="&lt;font style=&quot;font-size: 16px;&quot;&gt;Target train data&lt;/font&gt;" style="rounded=0;whiteSpace=wrap;html=1;fillColor=#fff2cc;strokeColor=#d6b656;" vertex="1" parent="1">
          <mxGeometry x="1078" y="1126" width="130" height="60" as="geometry" />
        </mxCell>
        <mxCell id="7rH_ultBV_I4tdvh8ZSU-14" value="" style="edgeStyle=none;html=1;strokeWidth=4;fillColor=#fff2cc;strokeColor=#d6b656;" edge="1" parent="1" source="7rH_ultBV_I4tdvh8ZSU-15" target="7rH_ultBV_I4tdvh8ZSU-16">
          <mxGeometry relative="1" as="geometry" />
        </mxCell>
        <mxCell id="7rH_ultBV_I4tdvh8ZSU-15" value="&lt;font style=&quot;font-size: 16px;&quot;&gt;Model&lt;/font&gt;" style="whiteSpace=wrap;html=1;rounded=0;fillColor=#fff2cc;strokeColor=#d6b656;" vertex="1" parent="1">
          <mxGeometry x="1288" y="1126" width="120" height="60" as="geometry" />
        </mxCell>
        <mxCell id="7rH_ultBV_I4tdvh8ZSU-16" value="&lt;font style=&quot;font-size: 16px;&quot;&gt;Target test data&lt;/font&gt;" style="whiteSpace=wrap;html=1;rounded=0;fillColor=#fff2cc;strokeColor=#d6b656;" vertex="1" parent="1">
          <mxGeometry x="1488" y="1126" width="130" height="60" as="geometry" />
        </mxCell>
      </root>
    </mxGraphModel>
  </diagram>
  <diagram id="iqlwg-4vR0CmH8_MjQXc" name="第 4 页">
    <mxGraphModel dx="1160" dy="911" grid="0" gridSize="10" guides="1" tooltips="1" connect="1" arrows="1" fold="1" page="0" pageScale="1" pageWidth="1654" pageHeight="2336" math="0" shadow="0">
      <root>
        <mxCell id="0" />
        <mxCell id="1" parent="0" />
        <mxCell id="M7-18EZ8fqAfAA9XEqlS-3" value="" style="edgeStyle=none;html=1;fontSize=16;strokeWidth=4;fillColor=#dae8fc;strokeColor=#6c8ebf;" edge="1" parent="1" source="M7-18EZ8fqAfAA9XEqlS-4" target="M7-18EZ8fqAfAA9XEqlS-6">
          <mxGeometry relative="1" as="geometry" />
        </mxCell>
        <mxCell id="M7-18EZ8fqAfAA9XEqlS-4" value="Source train data" style="rounded=0;whiteSpace=wrap;html=1;fontSize=16;fillColor=#dae8fc;strokeColor=#6c8ebf;" vertex="1" parent="1">
          <mxGeometry x="-1" y="84" width="125" height="60" as="geometry" />
        </mxCell>
        <mxCell id="M7-18EZ8fqAfAA9XEqlS-5" value="" style="edgeStyle=none;html=1;fontSize=16;strokeWidth=4;fillColor=#dae8fc;strokeColor=#6c8ebf;" edge="1" parent="1" source="M7-18EZ8fqAfAA9XEqlS-6" target="M7-18EZ8fqAfAA9XEqlS-8">
          <mxGeometry relative="1" as="geometry" />
        </mxCell>
        <mxCell id="M7-18EZ8fqAfAA9XEqlS-6" value="Model A" style="whiteSpace=wrap;html=1;rounded=0;fontSize=16;fillColor=#dae8fc;strokeColor=#6c8ebf;" vertex="1" parent="1">
          <mxGeometry x="219" y="84" width="120" height="60" as="geometry" />
        </mxCell>
        <mxCell id="M7-18EZ8fqAfAA9XEqlS-7" value="" style="edgeStyle=none;html=1;fontSize=16;strokeWidth=4;fillColor=#fff2cc;strokeColor=#d6b656;" edge="1" parent="1" source="M7-18EZ8fqAfAA9XEqlS-8" target="M7-18EZ8fqAfAA9XEqlS-11">
          <mxGeometry relative="1" as="geometry" />
        </mxCell>
        <mxCell id="M7-18EZ8fqAfAA9XEqlS-8" value="Model B" style="whiteSpace=wrap;html=1;rounded=0;fontSize=16;fillColor=#fff2cc;strokeColor=#d6b656;" vertex="1" parent="1">
          <mxGeometry x="219" y="224" width="120" height="60" as="geometry" />
        </mxCell>
        <mxCell id="M7-18EZ8fqAfAA9XEqlS-9" value="" style="edgeStyle=none;html=1;fontSize=16;strokeWidth=4;fillColor=#fff2cc;strokeColor=#d6b656;" edge="1" parent="1" source="M7-18EZ8fqAfAA9XEqlS-10" target="M7-18EZ8fqAfAA9XEqlS-8">
          <mxGeometry relative="1" as="geometry" />
        </mxCell>
        <mxCell id="M7-18EZ8fqAfAA9XEqlS-10" value="Target train data" style="rounded=0;whiteSpace=wrap;html=1;fontSize=16;fillColor=#fff2cc;strokeColor=#d6b656;" vertex="1" parent="1">
          <mxGeometry x="-1" y="224" width="125" height="60" as="geometry" />
        </mxCell>
        <mxCell id="M7-18EZ8fqAfAA9XEqlS-11" value="Target test data" style="whiteSpace=wrap;html=1;rounded=0;fontSize=16;fillColor=#fff2cc;strokeColor=#d6b656;" vertex="1" parent="1">
          <mxGeometry x="419" y="224" width="120" height="60" as="geometry" />
        </mxCell>
        <mxCell id="M7-18EZ8fqAfAA9XEqlS-12" value="Freeze" style="text;html=1;strokeColor=none;fillColor=none;align=center;verticalAlign=middle;whiteSpace=wrap;rounded=0;fontSize=16;" vertex="1" parent="1">
          <mxGeometry x="279" y="174" width="60" height="30" as="geometry" />
        </mxCell>
        <mxCell id="M7-18EZ8fqAfAA9XEqlS-13" value="Fine-tuning" style="text;html=1;align=center;verticalAlign=middle;resizable=0;points=[];autosize=1;fillColor=none;fontSize=16;" vertex="1" parent="1">
          <mxGeometry x="124" y="224" width="100" height="30" as="geometry" />
        </mxCell>
      </root>
    </mxGraphModel>
  </diagram>
  <diagram id="r-FvSlZwAOCg4WNi1Mgs" name="第 5 页">
    <mxGraphModel dx="1785" dy="918" grid="0" gridSize="10" guides="1" tooltips="1" connect="1" arrows="1" fold="1" page="0" pageScale="1" pageWidth="1654" pageHeight="2336" math="0" shadow="0">
      <root>
        <mxCell id="0" />
        <mxCell id="1" parent="0" />
        <mxCell id="8FPqyriZ43E198C2N2GM-1" value="" style="edgeStyle=none;html=1;fontSize=16;fillColor=#dae8fc;strokeColor=#6c8ebf;strokeWidth=4;" edge="1" parent="1" source="8FPqyriZ43E198C2N2GM-2" target="8FPqyriZ43E198C2N2GM-3">
          <mxGeometry relative="1" as="geometry" />
        </mxCell>
        <mxCell id="8FPqyriZ43E198C2N2GM-2" value="Source train data" style="rounded=0;whiteSpace=wrap;html=1;fontSize=16;fillColor=#dae8fc;strokeColor=#6c8ebf;" vertex="1" parent="1">
          <mxGeometry x="104" y="216" width="130" height="60" as="geometry" />
        </mxCell>
        <mxCell id="8FPqyriZ43E198C2N2GM-3" value="Model A" style="whiteSpace=wrap;html=1;rounded=0;fontSize=16;fillColor=#dae8fc;strokeColor=#6c8ebf;" vertex="1" parent="1">
          <mxGeometry x="324" y="216" width="120" height="60" as="geometry" />
        </mxCell>
        <mxCell id="8FPqyriZ43E198C2N2GM-4" value="" style="edgeStyle=none;html=1;exitX=1;exitY=0.5;exitDx=0;exitDy=0;fontSize=16;fillColor=#fff2cc;strokeColor=#d6b656;strokeWidth=4;" edge="1" parent="1" source="8FPqyriZ43E198C2N2GM-3" target="8FPqyriZ43E198C2N2GM-5">
          <mxGeometry relative="1" as="geometry">
            <mxPoint x="464" y="386" as="sourcePoint" />
          </mxGeometry>
        </mxCell>
        <mxCell id="8FPqyriZ43E198C2N2GM-5" value="Target test data" style="whiteSpace=wrap;html=1;rounded=0;fontSize=16;fillColor=#fff2cc;strokeColor=#d6b656;" vertex="1" parent="1">
          <mxGeometry x="534" y="216" width="130" height="60" as="geometry" />
        </mxCell>
      </root>
    </mxGraphModel>
  </diagram>
  <diagram id="cRwSnSYID-Q_6bkVv6xA" name="第 6 页">
    <mxGraphModel dx="1688" dy="765" grid="0" gridSize="10" guides="1" tooltips="1" connect="1" arrows="1" fold="1" page="0" pageScale="1" pageWidth="1654" pageHeight="2336" math="0" shadow="0">
      <root>
        <mxCell id="0" />
        <mxCell id="1" parent="0" />
        <mxCell id="JIKzjYq5HAgoS5UHzEsh-1" value="" style="rounded=0;whiteSpace=wrap;html=1;fontSize=14;" vertex="1" parent="1">
          <mxGeometry x="-186" y="105" width="15" height="36" as="geometry" />
        </mxCell>
        <mxCell id="JIKzjYq5HAgoS5UHzEsh-3" value="Input feature" style="text;html=1;align=center;verticalAlign=middle;whiteSpace=wrap;rounded=0;fontSize=14;" vertex="1" parent="1">
          <mxGeometry x="-186" y="67" width="121" height="30" as="geometry" />
        </mxCell>
        <mxCell id="JIKzjYq5HAgoS5UHzEsh-4" value="" style="rounded=0;whiteSpace=wrap;html=1;fontSize=14;" vertex="1" parent="1">
          <mxGeometry x="-171" y="105" width="15" height="36" as="geometry" />
        </mxCell>
        <mxCell id="JIKzjYq5HAgoS5UHzEsh-5" value="" style="rounded=0;whiteSpace=wrap;html=1;fontSize=14;" vertex="1" parent="1">
          <mxGeometry x="-156" y="105" width="15" height="36" as="geometry" />
        </mxCell>
        <mxCell id="JIKzjYq5HAgoS5UHzEsh-6" value="" style="rounded=0;whiteSpace=wrap;html=1;fontSize=14;" vertex="1" parent="1">
          <mxGeometry x="-141" y="105" width="15" height="36" as="geometry" />
        </mxCell>
        <mxCell id="JIKzjYq5HAgoS5UHzEsh-7" value="" style="rounded=0;whiteSpace=wrap;html=1;fontSize=14;" vertex="1" parent="1">
          <mxGeometry x="-126" y="105" width="15" height="36" as="geometry" />
        </mxCell>
        <mxCell id="JIKzjYq5HAgoS5UHzEsh-8" value="" style="rounded=0;whiteSpace=wrap;html=1;fontSize=14;" vertex="1" parent="1">
          <mxGeometry x="-111" y="105" width="15" height="36" as="geometry" />
        </mxCell>
        <mxCell id="JIKzjYq5HAgoS5UHzEsh-9" value="" style="rounded=0;whiteSpace=wrap;html=1;fontSize=14;" vertex="1" parent="1">
          <mxGeometry x="-96" y="105" width="15" height="36" as="geometry" />
        </mxCell>
        <mxCell id="JIKzjYq5HAgoS5UHzEsh-10" value="" style="rounded=0;whiteSpace=wrap;html=1;fontSize=14;" vertex="1" parent="1">
          <mxGeometry x="-81" y="105" width="15" height="36" as="geometry" />
        </mxCell>
        <mxCell id="JIKzjYq5HAgoS5UHzEsh-23" style="edgeStyle=none;curved=1;rounded=0;orthogonalLoop=1;jettySize=auto;html=1;exitX=1;exitY=0.5;exitDx=0;exitDy=0;entryX=0;entryY=0.5;entryDx=0;entryDy=0;fontSize=14;startSize=8;endSize=8;" edge="1" parent="1" source="JIKzjYq5HAgoS5UHzEsh-11" target="JIKzjYq5HAgoS5UHzEsh-13">
          <mxGeometry relative="1" as="geometry" />
        </mxCell>
        <mxCell id="JIKzjYq5HAgoS5UHzEsh-11" value="" style="rounded=0;whiteSpace=wrap;html=1;fontSize=14;" vertex="1" parent="1">
          <mxGeometry x="-66" y="105" width="15" height="36" as="geometry" />
        </mxCell>
        <mxCell id="JIKzjYq5HAgoS5UHzEsh-24" style="edgeStyle=none;curved=1;rounded=0;orthogonalLoop=1;jettySize=auto;html=1;exitX=1;exitY=0.5;exitDx=0;exitDy=0;entryX=0;entryY=0.5;entryDx=0;entryDy=0;fontSize=14;startSize=8;endSize=8;" edge="1" parent="1" source="JIKzjYq5HAgoS5UHzEsh-13" target="JIKzjYq5HAgoS5UHzEsh-14">
          <mxGeometry relative="1" as="geometry" />
        </mxCell>
        <mxCell id="JIKzjYq5HAgoS5UHzEsh-13" value="Attention" style="rounded=1;whiteSpace=wrap;html=1;fontSize=14;" vertex="1" parent="1">
          <mxGeometry x="21" y="93" width="120" height="60" as="geometry" />
        </mxCell>
        <mxCell id="JIKzjYq5HAgoS5UHzEsh-14" value="" style="rounded=0;whiteSpace=wrap;html=1;fontSize=14;" vertex="1" parent="1">
          <mxGeometry x="213" y="105" width="15" height="36" as="geometry" />
        </mxCell>
        <mxCell id="JIKzjYq5HAgoS5UHzEsh-15" value="" style="rounded=0;whiteSpace=wrap;html=1;fillColor=#f5f5f5;fontColor=#333333;strokeColor=#666666;fontSize=14;" vertex="1" parent="1">
          <mxGeometry x="228" y="105" width="15" height="36" as="geometry" />
        </mxCell>
        <mxCell id="JIKzjYq5HAgoS5UHzEsh-16" value="" style="rounded=0;whiteSpace=wrap;html=1;fillColor=#dae8fc;strokeColor=#6c8ebf;fontSize=14;" vertex="1" parent="1">
          <mxGeometry x="243" y="105" width="15" height="36" as="geometry" />
        </mxCell>
        <mxCell id="JIKzjYq5HAgoS5UHzEsh-17" value="" style="rounded=0;whiteSpace=wrap;html=1;fillColor=#d5e8d4;strokeColor=#82b366;fontSize=14;" vertex="1" parent="1">
          <mxGeometry x="258" y="105" width="15" height="36" as="geometry" />
        </mxCell>
        <mxCell id="JIKzjYq5HAgoS5UHzEsh-18" value="" style="rounded=0;whiteSpace=wrap;html=1;fillColor=#ffe6cc;strokeColor=#d79b00;fontSize=14;" vertex="1" parent="1">
          <mxGeometry x="273" y="105" width="15" height="36" as="geometry" />
        </mxCell>
        <mxCell id="JIKzjYq5HAgoS5UHzEsh-19" value="" style="rounded=0;whiteSpace=wrap;html=1;fillColor=#fff2cc;strokeColor=#d6b656;fontSize=14;" vertex="1" parent="1">
          <mxGeometry x="288" y="105" width="15" height="36" as="geometry" />
        </mxCell>
        <mxCell id="JIKzjYq5HAgoS5UHzEsh-20" value="" style="rounded=0;whiteSpace=wrap;html=1;fillColor=#e1d5e7;strokeColor=#9673a6;fontSize=14;" vertex="1" parent="1">
          <mxGeometry x="303" y="105" width="15" height="36" as="geometry" />
        </mxCell>
        <mxCell id="JIKzjYq5HAgoS5UHzEsh-21" value="" style="rounded=0;whiteSpace=wrap;html=1;fillColor=#f8cecc;strokeColor=#b85450;fontSize=14;" vertex="1" parent="1">
          <mxGeometry x="318" y="105" width="15" height="36" as="geometry" />
        </mxCell>
        <mxCell id="JIKzjYq5HAgoS5UHzEsh-22" value="" style="rounded=0;whiteSpace=wrap;html=1;fillColor=#f0a30a;fontColor=#000000;strokeColor=#BD7000;fontSize=14;" vertex="1" parent="1">
          <mxGeometry x="333" y="105" width="15" height="36" as="geometry" />
        </mxCell>
        <mxCell id="JIKzjYq5HAgoS5UHzEsh-25" value="&lt;div style=&quot;text-align: center;&quot;&gt;&lt;span style=&quot;background-color: transparent; color: light-dark(rgb(0, 0, 0), rgb(255, 255, 255));&quot;&gt;Output feature&lt;/span&gt;&lt;/div&gt;" style="text;whiteSpace=wrap;html=1;fontSize=14;" vertex="1" parent="1">
          <mxGeometry x="238.00429966517868" y="72" width="95" height="36" as="geometry" />
        </mxCell>
        <mxCell id="JIKzjYq5HAgoS5UHzEsh-26" value="F_in" style="text;html=1;align=center;verticalAlign=middle;whiteSpace=wrap;rounded=0;fontSize=14;" vertex="1" parent="1">
          <mxGeometry x="-163.5" y="149" width="60" height="30" as="geometry" />
        </mxCell>
        <mxCell id="JIKzjYq5HAgoS5UHzEsh-27" value="F_in * W" style="text;html=1;align=center;verticalAlign=middle;whiteSpace=wrap;rounded=0;fontSize=14;" vertex="1" parent="1">
          <mxGeometry x="41" y="149" width="60" height="30" as="geometry" />
        </mxCell>
        <mxCell id="JIKzjYq5HAgoS5UHzEsh-28" value="F_out" style="text;html=1;align=center;verticalAlign=middle;whiteSpace=wrap;rounded=0;fontSize=14;" vertex="1" parent="1">
          <mxGeometry x="250.5" y="149" width="60" height="30" as="geometry" />
        </mxCell>
      </root>
    </mxGraphModel>
  </diagram>
</mxfile>
